<svg width="13584" height="3424" viewBox="0 0 13584 3424" fill="none" xmlns="http://www.w3.org/2000/svg">
<path d="M1861.64 443.018C1785.5 295.865 1843.07 114.849 1990.22 38.7063L1999.57 33.8683C2146.72 -42.274 2327.74 15.2915 2403.88 162.445L3821.73 2902.58C3897.87 3049.73 3840.31 3230.75 3693.15 3306.89L3683.8 3311.73C3536.65 3387.87 3355.63 3330.31 3279.49 3183.15L1861.64 443.018Z" fill="#00897B"/>
<path d="M1851.57 202.633C1923.95 53.5896 2103.44 -8.56426 2252.48 63.8084L2261.95 68.407C2410.99 140.78 2473.15 320.273 2400.78 469.316L1581.07 2157.4C1508.7 2306.44 1329.21 2368.59 1180.17 2296.22L1170.7 2291.62C1021.65 2219.25 959.498 2039.76 1031.87 1890.71L1851.57 202.633Z" fill="#00897B"/>
<path d="M1276.41 1757.11C1442.09 1758.17 1575.54 1893.35 1574.48 2059.03L1574.41 2069.56C1573.35 2235.24 1438.17 2368.69 1272.49 2367.63L298.994 2361.39C133.312 2360.33 -0.139186 2225.15 0.922551 2059.47L0.990013 2048.95C2.05175 1883.26 137.224 1749.81 302.906 1750.87L1276.41 1757.11Z" fill="#00897B"/>
<path d="M2497.34 2813.96C2579.49 2927.49 2572.23 3095.28 2547.93 3226.24C2525.29 3348.21 2411.6 3423.95 2287.54 3423.15L301.566 3410.42C135.884 3409.36 2.43212 3274.19 3.49386 3108.51L3.56133 3097.98C4.62306 2932.3 139.796 2798.85 305.478 2799.91L1827.05 2809.66C1858.41 2809.86 1890.07 2805.66 1916.71 2789.12C1959.33 2762.66 2021.95 2707.27 2044.98 2602.45C2081.24 2437.47 2344.45 2602.66 2497.34 2813.96Z" fill="#FF8B30"/>
<path d="M11579.3 2398.82C11579.3 2205.05 11613.9 2035.78 11682.9 1891.01C11754.2 1746.24 11850 1634.88 11970.2 1556.93C12092.7 1478.98 12228.6 1440 12377.8 1440C12507 1440 12618.4 1465.61 12711.9 1516.84C12805.4 1568.07 12877.8 1637.11 12929.1 1723.97V1463.39H13583.9V3337.6H12929.1V3077.01C12877.8 3163.88 12804.3 3232.92 12708.6 3284.15C12615 3335.37 12504.8 3360.99 12377.8 3360.99C12228.6 3360.99 12092.7 3322.01 11970.2 3244.06C11850 3166.1 11754.2 3054.74 11682.9 2909.97C11613.9 2762.98 11579.3 2592.59 11579.3 2398.82ZM12929.1 2398.82C12929.1 2278.55 12895.6 2183.9 12828.8 2114.85C12764.2 2045.81 12684.1 2011.29 12588.3 2011.29C12490.3 2011.29 12409 2045.81 12344.4 2114.85C12279.8 2181.67 12247.5 2276.33 12247.5 2398.82C12247.5 2519.09 12279.8 2614.86 12344.4 2686.14C12409 2755.18 12490.3 2789.7 12588.3 2789.7C12684.1 2789.7 12764.2 2755.18 12828.8 2686.14C12895.6 2617.09 12929.1 2521.32 12929.1 2398.82Z" fill="#00897B"/>
<path d="M10846.8 1794.12C10920.3 1687.21 11009.4 1602.58 11114.1 1540.22C11218.8 1477.86 11331.2 1446.67 11451.5 1446.67V2144.91H11267.8C11125.2 2144.91 11019.4 2172.75 10950.4 2228.43C10881.3 2284.11 10846.8 2381 10846.8 2519.09V3337.59H10192V1463.38H10846.8V1794.12Z" fill="#00897B"/>
<path d="M9819.35 1463.38V3337.59H9161.2V3070.33C9105.52 3154.96 9028.68 3224.01 8930.68 3277.46C8832.69 3328.69 8720.21 3354.3 8593.26 3354.3C8374.99 3354.3 8202.38 3283.03 8075.43 3140.48C7950.7 2995.71 7888.34 2799.72 7888.34 2552.5V1463.38H8539.8V2468.97C8539.8 2575.88 8567.64 2660.52 8623.33 2722.88C8681.23 2783.01 8756.96 2813.08 8850.5 2813.08C8946.27 2813.08 9022 2783.01 9077.68 2722.88C9133.36 2660.52 9161.2 2575.88 9161.2 2468.97V1463.38H9819.35Z" fill="#00897B"/>
<path d="M6801.37 3360.99C6632.1 3360.99 6480.65 3333.15 6347.01 3277.47C6215.61 3219.56 6110.93 3141.6 6032.97 3043.61C5957.25 2943.38 5914.93 2830.91 5906.02 2706.18H6540.78C6549.69 2766.32 6577.53 2813.09 6624.3 2846.5C6671.07 2879.91 6728.98 2896.61 6798.03 2896.61C6851.48 2896.61 6893.8 2885.47 6924.98 2863.2C6956.16 2840.93 6971.75 2811.97 6971.75 2776.34C6971.75 2729.57 6946.14 2695.05 6894.91 2672.77C6843.69 2650.5 6759.05 2626 6641.01 2599.27C6507.37 2572.55 6396.01 2542.48 6306.92 2509.07C6217.83 2475.66 6139.88 2421.1 6073.06 2345.37C6008.47 2269.64 5976.18 2167.19 5976.18 2038.01C5976.18 1926.65 6006.25 1826.43 6066.38 1737.34C6126.52 1646.02 6214.49 1573.63 6330.31 1520.18C6448.35 1466.73 6589.78 1440 6754.6 1440C6999.59 1440 7192.25 1500.14 7332.56 1620.41C7472.88 1740.68 7554.17 1898.81 7576.44 2094.81H6985.11C6973.98 2034.67 6947.25 1989.01 6904.93 1957.83C6864.84 1924.42 6810.28 1907.72 6741.23 1907.72C6687.78 1907.72 6646.57 1917.74 6617.62 1937.79C6590.89 1957.83 6577.53 1985.67 6577.53 2021.31C6577.53 2065.85 6603.14 2100.37 6654.37 2124.87C6705.6 2147.15 6788 2170.53 6901.59 2195.03C7037.45 2223.99 7149.93 2256.28 7239.02 2291.92C7330.33 2327.55 7409.4 2385.46 7476.22 2465.64C7545.26 2543.59 7579.78 2650.5 7579.78 2786.36C7579.78 2895.5 7547.49 2993.49 7482.9 3080.36C7420.54 3167.22 7330.33 3236.26 7212.29 3287.49C7096.48 3336.49 6959.5 3360.99 6801.37 3360.99Z" fill="#00897B"/>
<path d="M4902.56 3360.99C4733.29 3360.99 4581.84 3333.15 4448.21 3277.47C4316.8 3219.56 4212.12 3141.6 4134.17 3043.61C4058.44 2943.38 4016.12 2830.91 4007.21 2706.18H4641.97C4650.88 2766.32 4678.72 2813.09 4725.5 2846.5C4772.27 2879.91 4830.18 2896.61 4899.22 2896.61C4952.67 2896.61 4994.99 2885.47 5026.17 2863.2C5057.35 2840.93 5072.94 2811.97 5072.94 2776.34C5072.94 2729.57 5047.33 2695.05 4996.1 2672.77C4944.88 2650.5 4860.24 2626 4742.2 2599.27C4608.57 2572.55 4497.2 2542.48 4408.12 2509.07C4319.03 2475.66 4241.07 2421.1 4174.26 2345.37C4109.67 2269.64 4077.37 2167.19 4077.37 2038.01C4077.37 1926.65 4107.44 1826.43 4167.57 1737.34C4227.71 1646.02 4315.69 1573.63 4431.5 1520.18C4549.54 1466.73 4690.97 1440 4855.79 1440C5100.78 1440 5293.44 1500.14 5433.76 1620.41C5574.07 1740.68 5655.36 1898.81 5677.64 2094.81H5086.31C5075.17 2034.67 5048.44 1989.01 5006.13 1957.83C4966.04 1924.42 4911.47 1907.72 4842.43 1907.72C4788.97 1907.72 4747.77 1917.74 4718.81 1937.79C4692.09 1957.83 4678.72 1985.67 4678.72 2021.31C4678.72 2065.85 4704.34 2100.37 4755.56 2124.87C4806.79 2147.15 4889.2 2170.53 5002.79 2195.03C5138.65 2223.99 5251.12 2256.28 5340.21 2291.92C5431.53 2327.55 5510.59 2385.46 5577.41 2465.64C5646.46 2543.59 5680.98 2650.5 5680.98 2786.36C5680.98 2895.5 5648.68 2993.49 5584.09 3080.36C5521.73 3167.22 5431.53 3236.26 5313.49 3287.49C5197.67 3336.49 5060.69 3360.99 4902.56 3360.99Z" fill="#00897B"/>
</svg>
