<svg width="3856" height="3424" viewBox="0 0 3856 3424" fill="none" xmlns="http://www.w3.org/2000/svg">
<path d="M1861.64 443.018C1785.5 295.865 1843.07 114.849 1990.22 38.7063L1999.57 33.8683C2146.72 -42.274 2327.74 15.2915 2403.88 162.445L3821.73 2902.58C3897.87 3049.73 3840.31 3230.75 3693.15 3306.89L3683.8 3311.73C3536.65 3387.87 3355.63 3330.31 3279.49 3183.15L1861.64 443.018Z" fill="#00897B"/>
<path d="M1851.57 202.633C1923.95 53.5896 2103.44 -8.5642 2252.48 63.8085L2261.95 68.407C2410.99 140.78 2473.15 320.273 2400.78 469.316L1581.07 2157.4C1508.7 2306.44 1329.21 2368.59 1180.17 2296.22L1170.7 2291.62C1021.65 2219.25 959.498 2039.76 1031.87 1890.71L1851.57 202.633Z" fill="#00897B"/>
<path d="M1276.41 1757.11C1442.09 1758.17 1575.54 1893.35 1574.48 2059.03L1574.41 2069.56C1573.35 2235.24 1438.17 2368.69 1272.49 2367.63L298.994 2361.39C133.312 2360.33 -0.139186 2225.15 0.922551 2059.47L0.990013 2048.95C2.05175 1883.26 137.224 1749.81 302.906 1750.87L1276.41 1757.11Z" fill="#00897B"/>
<path d="M2497.34 2813.96C2579.49 2927.49 2572.23 3095.28 2547.93 3226.24C2525.29 3348.21 2411.6 3423.95 2287.54 3423.15L301.566 3410.42C135.884 3409.36 2.43209 3274.19 3.49383 3108.51L3.56129 3097.98C4.62303 2932.3 139.796 2798.85 305.478 2799.91L1827.05 2809.66C1858.41 2809.86 1890.07 2805.66 1916.71 2789.12C1959.33 2762.66 2021.95 2707.27 2044.98 2602.45C2081.24 2437.47 2344.45 2602.66 2497.34 2813.96Z" fill="#FF8B30"/>
</svg>
